<svg xmlns="http://www.w3.org/2000/svg" viewBox="0 0 720 420" role="img" aria-labelledby="title desc">
  <title id="title">Bar chart of weekend activities</title>
  <desc id="desc">Grouped bars show streaming, sport, reading, and gardening by age group.</desc>
  <rect width="720" height="420" fill="#ffffff"/>
  <text x="42" y="40" font-family="Arial, sans-serif" font-size="22" font-weight="700" fill="#17211c">Preferred weekend activities by age group</text>
  <line x1="70" y1="340" x2="665" y2="340" stroke="#9aa7a0" stroke-width="2"/>
  <line x1="70" y1="78" x2="70" y2="340" stroke="#9aa7a0" stroke-width="2"/>
  <g stroke="#e6ece8" stroke-width="1">
    <line x1="70" y1="288" x2="665" y2="288"/>
    <line x1="70" y1="236" x2="665" y2="236"/>
    <line x1="70" y1="184" x2="665" y2="184"/>
    <line x1="70" y1="132" x2="665" y2="132"/>
    <line x1="70" y1="80" x2="665" y2="80"/>
  </g>
  <g font-family="Arial, sans-serif" font-size="13" fill="#67716b">
    <text x="52" y="344" text-anchor="end">0</text>
    <text x="52" y="240" text-anchor="end">20</text>
    <text x="52" y="136" text-anchor="end">40</text>
    <text x="120" y="370">18-29</text>
    <text x="270" y="370">30-44</text>
    <text x="420" y="370">45-59</text>
    <text x="570" y="370">60+</text>
  </g>
  <g>
    <rect x="108" y="106" width="18" height="234" fill="#1b7f6e"/>
    <rect x="130" y="184" width="18" height="156" fill="#2f5fa8"/>
    <rect x="152" y="246" width="18" height="94" fill="#b26a00"/>
    <rect x="174" y="298" width="18" height="42" fill="#8b5cf6"/>
    <rect x="258" y="163" width="18" height="177" fill="#1b7f6e"/>
    <rect x="280" y="205" width="18" height="135" fill="#2f5fa8"/>
    <rect x="302" y="225" width="18" height="115" fill="#b26a00"/>
    <rect x="324" y="257" width="18" height="83" fill="#8b5cf6"/>
    <rect x="408" y="231" width="18" height="109" fill="#1b7f6e"/>
    <rect x="430" y="246" width="18" height="94" fill="#2f5fa8"/>
    <rect x="452" y="215" width="18" height="125" fill="#b26a00"/>
    <rect x="474" y="179" width="18" height="161" fill="#8b5cf6"/>
    <rect x="558" y="262" width="18" height="78" fill="#1b7f6e"/>
    <rect x="580" y="278" width="18" height="62" fill="#2f5fa8"/>
    <rect x="602" y="226" width="18" height="114" fill="#b26a00"/>
    <rect x="624" y="122" width="18" height="218" fill="#8b5cf6"/>
  </g>
  <g font-family="Arial, sans-serif" font-size="13" fill="#17211c">
    <rect x="460" y="52" width="13" height="13" fill="#1b7f6e"/><text x="480" y="64">Streaming</text>
    <rect x="560" y="52" width="13" height="13" fill="#2f5fa8"/><text x="580" y="64">Sport</text>
    <rect x="460" y="74" width="13" height="13" fill="#b26a00"/><text x="480" y="86">Reading</text>
    <rect x="560" y="74" width="13" height="13" fill="#8b5cf6"/><text x="580" y="86">Gardening</text>
  </g>
</svg>

